PathFileType	4	(X/Y/Z)	C:\Users\Basilio\Documents\Thesis Gigler\squatting_fais\c3dfiles\047\SLS_pre_front1\markers_experimental.trc
DataRate	CameraRate	NumFrames	NumMarkers	Units	OrigDataRate	OrigDataStartFrame	OrigNumFrames
200.000000	200.000000	4	60	mm	200.000000	453	1209
Frame#	Time	FHD			LBHD			RBHD			C7			T10			CLAV			LSHO			LUUPA			LMUPA			LDUPA			LLEP			LRAD			LUL			LRFIN			RSHO			RUPA1			RMUPA			RDUPA			RLEP			RMEP			RRAD			RUL			RUFIN			LASI			RASI			USACR			LSACR			RSACR			LTHI1			LTHI2			LTHI3			LTHI4			LLFC			LMFC			LTIB1			LTIB2			LTIB3			LTIB4			LLMAL			LMMAL			LMT1			LMT2			LMT5			RTHI			RTHI2			RTHI3			RTHI4			RLFC			RMFC			RTIB1			RTIB2			RTIB3			RTIB4			RLMAL			RMMAL			RHEE			RMT1			RMT2			RMT5			LMEP			
		X1	Y1	Z1	X2	Y2	Z2	X3	Y3	Z3	X4	Y4	Z4	X5	Y5	Z5	X6	Y6	Z6	X7	Y7	Z7	X8	Y8	Z8	X9	Y9	Z9	X10	Y10	Z10	X11	Y11	Z11	X12	Y12	Z12	X13	Y13	Z13	X14	Y14	Z14	X15	Y15	Z15	X16	Y16	Z16	X17	Y17	Z17	X18	Y18	Z18	X19	Y19	Z19	X20	Y20	Z20	X21	Y21	Z21	X22	Y22	Z22	X23	Y23	Z23	X24	Y24	Z24	X25	Y25	Z25	X26	Y26	Z26	X27	Y27	Z27	X28	Y28	Z28	X29	Y29	Z29	X30	Y30	Z30	X31	Y31	Z31	X32	Y32	Z32	X33	Y33	Z33	X34	Y34	Z34	X35	Y35	Z35	X36	Y36	Z36	X37	Y37	Z37	X38	Y38	Z38	X39	Y39	Z39	X40	Y40	Z40	X41	Y41	Z41	X42	Y42	Z42	X43	Y43	Z43	X44	Y44	Z44	X45	Y45	Z45	X46	Y46	Z46	X47	Y47	Z47	X48	Y48	Z48	X49	Y49	Z49	X50	Y50	Z50	X51	Y51	Z51	X52	Y52	Z52	X53	Y53	Z53	X54	Y54	Z54	X55	Y55	Z55	X56	Y56	Z56	X57	Y57	Z57	X58	Y58	Z58	X59	Y59	Z59	X60	Y60	Z60	

454	2.265	-112.0095901489258	1526.724365234375	-1091.463745117188	-291.2580871582032	1507.90283203125	-1123.108276367188	-272.8102722167969	1510.678466796875	-975.542419433594	-344.7526550292969	1346.018676757813	-1046.537963867188	-448.2600708007814	1056.591918945313	-1010.8779296875	-207.2289428710938	1260.268676757813	-1065.39306640625	-272.8828430175782	1315.15234375	-1204.391357421875	-178.6124877929688	1234.176513671875	-1321.745483398438	-146.1726531982422	1272.223999023438	-1312.837768554688	-110.7896804809571	1233.101318359375	-1338.937866210938	-45.96608352661134	1246.029907226563	-1348.546630859375	224.2601470947266	1230.511352539063	-1308.634033203125	211.3755798339844	1239.669799804688	-1385.425903320313	305.6399841308594	1249.335205078125	-1335.920776367188	-242.3806762695313	1331.970703125	-925.5812988281252	-109.7141723632813	1262.660766601563	-830.809509277344	-82.84095001220705	1293.3681640625	-856.590270996094	-40.28255844116212	1254.83740234375	-838.2532958984377	26.99129104614259	1263.400512695313	-855.8970947265627	24.64470100402833	1195.25439453125	-901.7202148437502	274.5669250488282	1246.555541992188	-978.7153320312502	281.3835754394532	1262.53955078125	-902.614685058594	353.4700012207032	1265.206420898438	-979.4846191406252	-315.4628295898438	812.0557250976565	-1089.673950195313	-313.0325622558594	849.3860473632815	-862.5415649414065	-492.2790527343751	912.0709228515627	-985.8528442382815	-503.7066650390626	880.3033447265627	-1011.184875488281	-499.1290588378907	884.107604980469	-953.966735839844	-332.9534912109376	673.5258178710939	-1162.906982421875	-254.4945831298829	642.1312255859376	-1166.760620117188	-220.6796112060547	674.9177246093751	-1154.451049804688	-238.3318634033204	583.5008544921876	-1168.830322265625	-145.3616027832032	448.5345458984376	-1140.470825195313	-108.6411590576172	459.556121826172	-1017.36083984375	-171.8519287109375	292.9451904296876	-1022.460510253906	-198.3394622802735	244.4176330566407	-1089.909790039063	-185.4667053222657	240.9953613281251	-1044.283203125	-236.5730285644532	186.698471069336	-1010.534606933594	-325.2386779785157	115.3897171020508	-1052.57177734375	-300.7826538085938	137.8404541015625	-965.658142089844	-191.1365203857422	61.95073318481447	-977.8315429687502	-189.2789001464844	58.98574829101564	-1022.428771972656	-237.2456817626954	44.8489112854004	-1068.197875976563	-298.3788757324219	704.8160400390626	-761.4879760742189	-231.3019409179688	707.2198486328126	-762.3133544921876	-215.4170989990235	733.7199707031251	-773.4522705078127	-179.6407928466797	641.0465698242189	-767.1284790039064	-54.04866409301759	569.7442016601564	-790.6232910156252	-37.63051223754884	576.1572265625001	-913.6201782226565	57.20181274414064	498.1300354003907	-811.6700439453127	65.40173339843751	397.9418945312501	-767.3819580078126	97.25013732910159	425.0999145507814	-787.0088500976565	132.140121459961	392.6773376464845	-822.3425292968752	180.5703277587891	239.8293151855469	-786.2003173828127	186.4194793701172	259.6656799316407	-876.4290161132815	149.1152801513672	175.4328918457032	-832.224548339844	332.1727905273438	268.1706237792969	-869.8214111328127	337.4437561035157	279.8161621093751	-827.798767089844	314.7587890625001	238.5942687988282	-767.2071533203126	-32.59078598022462	1183.905029296875	-1303.697021484375	
455	2.27	-111.5607376098633	1525.066284179688	-1091.327758789063	-290.4341430664063	1505.875610351563	-1123.176879882813	-272.3380737304688	1509.212890625	-975.9254150390627	-344.2190246582032	1344.688720703125	-1046.715454101563	-448.0957031250001	1055.855102539063	-1010.958374023438	-206.5936737060547	1258.807861328125	-1065.439453125	-271.8208923339844	1313.637573242188	-1204.728271484375	-178.0343170166016	1232.61376953125	-1321.939575195313	-145.7755126953125	1270.728759765625	-1313.072143554688	-110.3720169067383	1231.783813476563	-1339.068237304688	-45.47101593017579	1244.487915039063	-1348.940063476563	224.9209442138672	1228.926513671875	-1308.649291992188	212.0110931396485	1238.17333984375	-1385.623901367188	305.9832458496094	1247.924194335938	-1336.100830078125	-241.9976959228516	1330.506591796875	-925.691589355469	-108.8876190185547	1261.133911132813	-830.1904296875002	-82.10437011718751	1291.906005859375	-856.7360839843752	-39.7187843322754	1253.357177734375	-838.2988891601565	27.49393463134766	1262.171997070313	-855.972351074219	24.99971389770509	1193.826538085938	-901.465026855469	273.1819152832032	1245.267944335938	-977.2989501953127	281.7925109863282	1261.015014648438	-902.349304199219	353.7137451171876	1263.86865234375	-979.2468261718752	-317.2227172851563	810.8645019531252	-1089.235717773438	-313.1183471679688	848.427673339844	-862.5773925781252	-492.223846435547	911.0945434570315	-985.7286376953127	-503.9858398437501	879.2579345703127	-1011.089477539063	-499.3096618652345	883.0700683593752	-953.7930908203127	-333.2250671386719	672.7357788085939	-1162.891235351563	-254.7126922607422	641.3121337890626	-1166.94677734375	-220.9782409667969	674.4796752929689	-1154.791015625	-238.3850708007813	583.0811767578126	-1168.993774414063	-145.2257232666016	448.2323608398439	-1140.779541015625	-108.3170318603516	459.088592529297	-1017.78857421875	-171.5797882080078	292.7233886718751	-1023.052001953125	-198.3057708740235	244.3026733398438	-1090.270874023438	-185.294921875	240.6763763427735	-1044.822387695313	-236.4446411132813	186.4714050292969	-1010.826965332031	-325.3680725097657	115.3619003295899	-1052.755493164063	-300.5488281250001	138.2019348144532	-966.036315917969	-191.225814819336	62.08985519409181	-977.837097167969	-189.2695007324219	59.00534057617189	-1022.572875976563	-237.3683624267579	44.58420944213868	-1068.194702148438	-298.5346069335938	703.5856933593751	-761.2192382812501	-231.2805938720704	706.2554321289064	-762.1894531250001	-215.8559112548829	732.5800170898439	-773.0927734375002	-179.7539672851563	640.2827148437501	-766.8302001953126	-54.00894927978517	568.4656982421876	-790.5784912109377	-37.97295761108399	574.8192138671876	-913.010925292969	57.35790252685548	497.1778259277345	-811.4976196289065	65.21931457519533	396.9882812500001	-766.6223754882814	96.81085205078128	424.1024475097657	-786.299987792969	132.2623443603516	391.4048767089845	-821.890563964844	180.6151885986328	239.0034484863282	-786.2104492187502	186.5450286865235	258.8611755371094	-876.2143554687502	149.1705169677735	174.5016479492188	-832.0050048828127	332.0138244628907	267.1100769042969	-869.394958496094	337.3334350585938	278.8717041015626	-827.556091308594	314.3489074707032	237.4769287109376	-766.1145629882814	-31.69962882995606	1182.645751953125	-1303.520263671875	
456	2.275	-110.7848892211914	1524.41455078125	-1091.386840820313	-289.9790039062501	1504.385498046875	-1123.349731445313	-272.0025024414063	1507.652709960938	-975.6931762695315	-343.6460876464844	1343.449951171875	-1046.931762695313	-447.8955078125001	1054.516479492188	-1011.012329101563	-206.2372589111329	1257.26123046875	-1065.626098632813	-271.3997497558594	1312.29541015625	-1204.821166992188	-177.513916015625	1231.165283203125	-1322.266357421875	-144.617416381836	1269.382446289063	-1313.422119140625	-109.840202331543	1230.2939453125	-1339.244506835938	-45.04842758178712	1243.214721679688	-1348.883056640625	225.4479675292969	1227.285888671875	-1309.031860351563	212.2899780273438	1236.730712890625	-1385.764526367188	306.4500122070313	1246.242919921875	-1336.267578125	-241.1683807373047	1329.117431640625	-925.980895996094	-108.4820327758789	1259.929809570313	-831.0286865234377	-81.60337829589845	1290.708862304688	-856.9879150390627	-39.21247100830079	1252.117431640625	-838.413024902344	28.01053428649903	1260.6748046875	-856.1036376953127	25.52707481384278	1192.410400390625	-901.5350341796877	273.8615417480469	1243.875854492188	-977.3702392578127	282.5611877441407	1259.627563476563	-902.7698364257815	354.5560607910157	1262.601928710938	-979.648864746094	-317.7601013183594	809.5126953125002	-1088.977783203125	-313.3268737792969	847.3007812500002	-862.5076293945315	-492.4201660156251	910.1546020507815	-985.522155761719	-504.2144470214845	878.100280761719	-1010.884094238281	-499.5224914550782	882.0498657226565	-953.582214355469	-333.5811462402344	671.8075561523439	-1162.834350585938	-254.8807525634766	640.5258789062501	-1166.892211914063	-221.3321685791016	673.8237304687501	-1154.966796875	-238.4445037841797	582.4154052734376	-1169.158813476563	-144.8486938476563	448.145721435547	-1140.803833007813	-108.0048065185547	458.4225463867189	-1017.746948242188	-171.3377075195313	292.4873657226563	-1023.403137207031	-198.3090515136719	244.1758880615235	-1090.723022460938	-185.32080078125	240.536849975586	-1045.344604492188	-236.4599609375001	186.2223052978516	-1010.770263671875	-325.3574218750001	115.254020690918	-1052.959106445313	-300.4805908203126	138.2882843017578	-966.3341064453127	-191.2299499511719	62.33621215820314	-978.0205688476565	-189.2486572265625	58.94522094726564	-1022.642700195313	-237.3235931396485	44.39263153076173	-1068.388671875	-298.4933166503907	702.7208251953126	-761.2492675781251	-231.4711914062501	705.0558471679689	-762.1535644531251	-215.5916137695313	731.7288208007814	-773.3237304687502	-179.7892761230469	639.1417236328126	-766.1839599609376	-54.18364715576173	567.6425170898439	-790.3800048828127	-38.01162338256837	574.0016479492189	-912.8787231445315	57.13475799560548	496.1886596679689	-811.158630371094	65.33324432373048	395.9057617187501	-766.7819824218751	97.11756134033206	423.1793823242189	-786.4564208984377	132.1485443115235	390.4007263183595	-821.6164550781252	180.6596221923828	237.7103576660157	-785.565368652344	186.4100646972657	257.7864685058594	-875.6759033203127	149.27685546875	173.3576202392578	-831.6866455078127	332.0628967285157	266.1751708984376	-869.0264892578127	337.1914978027344	278.0496520996094	-827.0843505859377	314.5265502929688	236.8449707031251	-766.2432250976564	-30.97793006896973	1181.23974609375	-1303.157592773438	
457	2.28	-110.4332122802735	1522.35546875	-1091.132690429688	-288.9632568359376	1502.8203125	-1123.516235351563	-271.3040161132813	1505.975830078125	-976.1309814453127	-342.9213562011719	1342.061645507813	-1047.132446289063	-448.0040283203126	1053.489624023438	-1010.943664550781	-205.4465637207032	1255.776123046875	-1065.922973632813	-270.9669799804688	1310.682739257813	-1204.90673828125	-176.9813690185547	1229.690063476563	-1322.408447265625	-144.6092071533203	1268.128173828125	-1313.66455078125	-109.5559997558594	1228.849853515625	-1339.451782226563	-44.52940750122071	1241.699829101563	-1349.292114257813	226.0054016113282	1225.808959960938	-1309.165283203125	212.8343963623047	1235.2509765625	-1385.901123046875	306.7847900390626	1244.828125	-1336.437744140625	-240.4714050292969	1327.735717773438	-926.2898559570315	-107.8055114746094	1258.272216796875	-830.711120605469	-81.21636962890626	1289.140625	-856.9780273437502	-38.84240341186524	1250.486206054688	-838.3648681640627	28.80404281616212	1259.2470703125	-856.2211914062502	25.97111320495606	1191.213500976563	-901.5003662109377	274.6106567382813	1242.34912109375	-977.5444335937502	282.8424072265626	1258.059936523438	-902.3596801757815	355.1431274414063	1261.025512695313	-979.6110839843752	-317.7893676757813	808.3616333007815	-1089.043212890625	-313.4600219726563	846.0150146484377	-862.1219482421877	-492.609100341797	908.9302978515627	-985.3880004882815	-504.2896118164064	877.143493652344	-1010.601318359375	-499.491180419922	880.9373168945315	-953.3957519531252	-333.8917846679688	670.8491821289064	-1162.852416992188	-255.0137176513672	639.7523193359376	-1167.218383789063	-221.3643341064454	673.0321655273439	-1155.171630859375	-238.4201354980469	581.6358032226564	-1169.333374023438	-144.6397552490235	448.1275939941407	-1141.628540039063	-106.8953628540039	458.1887207031251	-1019.9951171875	-170.9081726074219	292.2122497558594	-1024.004760742188	-198.2259521484376	244.1181335449219	-1091.348876953125	-185.0272827148438	240.2766418457032	-1045.983642578125	-236.5039520263672	185.8828735351563	-1010.45947265625	-325.4588623046876	115.2325973510742	-1053.1357421875	-300.3990478515626	138.4084777832032	-966.5501098632815	-191.1754150390625	62.55589675903322	-978.280456542969	-189.2727661132813	58.89559555053712	-1022.710144042969	-237.3606262207032	44.19408798217774	-1068.434448242188	-298.6755981445313	701.7175292968751	-760.7454223632814	-231.4859619140626	704.2942504882814	-761.7648315429689	-215.8533630371094	730.5421142578126	-773.1968994140627	-179.9287109375	638.2165527343751	-766.1939086914064	-54.5360794067383	566.5900878906251	-789.6873779296877	-39.57066345214844	572.4808959960939	-912.5894165039065	56.98247146606447	495.0653686523439	-811.165710449219	65.17796325683595	394.9652404785157	-766.5533447265626	96.97431182861331	422.0439758300782	-786.5267333984377	132.1190338134766	389.3085021972657	-821.4193115234377	180.754867553711	236.6851501464844	-785.490661621094	186.0213470458985	256.5691223144532	-875.1384887695315	148.7019653320313	172.8409881591797	-830.850280761719	331.8826904296876	265.0639648437501	-868.587585449219	337.0581970214844	277.3854064941407	-826.8577880859377	314.6923217773438	236.1747741699219	-766.0330810546876	-30.50115966796876	1179.784790039063	-1303.562255859375	
